<svg width="50" height="50" fill="#FFC121" xmlns="http://www.w3.org/2000/svg"><path d="M31.162 32.292c.916-4.224 1.395-7.969 1.395-9.537 0-4.385-3.567-7.953-7.948-7.953-4.38 0-7.948 3.568-7.948 7.953 0 1.568.48 5.313 1.396 9.542a11.832 11.832 0 00-3.666 2.484 11.822 11.822 0 00-3.49 8.422 3.903 3.903 0 003.896 3.896h1.036l.354 1.422c.22.87 1 1.479 1.896 1.479h13.052c.896 0 1.677-.61 1.896-1.48l.354-1.421h1.037a3.903 3.903 0 003.896-3.896 11.82 11.82 0 00-7.156-10.911zm-10.756-9.266c1.146-.255 2.485-.849 3.078-2.562 1.344 1.15 3.037 1.953 5.334 2.541v3.26a4.213 4.213 0 01-4.209 4.209 4.209 4.209 0 01-4.203-4.208v-3.24zm5.73 8.26v1.245a1.525 1.525 0 01-2.605 1.078 1.5 1.5 0 01-.448-1.078v-1.244c.485.145.995.229 1.526.229a5.28 5.28 0 001.526-.23zM24.608 45.59a1.93 1.93 0 01-1.932-1.927c0-1.068.865-1.938 1.932-1.938a1.94 1.94 0 011.938 1.938c0 1.062-.87 1.927-1.938 1.927zm9.813.468h-.776l1.578-6.317a1.952 1.952 0 00-1.896-2.427H15.896a1.956 1.956 0 00-1.901 2.427l1.578 6.317h-.776a2.859 2.859 0 01-2.854-2.854 10.76 10.76 0 013.187-7.682 10.648 10.648 0 013.719-2.438 10.713 10.713 0 013.193-.713v.162c0 .687.265 1.333.75 1.817a2.57 2.57 0 004.386-1.818v-.161c1.093.078 2.166.307 3.197.714 4.193 1.64 6.901 5.614 6.901 10.12a2.859 2.859 0 01-2.854 2.853z" fill="#AB0C2F"/><path d="M48.39 20.984l-5.338-5.338V3.916a2.256 2.256 0 00-2.255-2.255h-3.458c-1.25 0-2.26 1.01-2.26 2.256v3.755l-5.694-5.693A6.714 6.714 0 0024.61 0c-1.802 0-3.5.703-4.776 1.98L.828 20.983a2.848 2.848 0 000 4.016 2.843 2.843 0 004.016 0L23.849 5.995c.193-.193.469-.302.76-.302.292 0 .573.11.76.302L44.38 25a2.823 2.823 0 002.005.828c.724 0 1.454-.276 2.006-.828a2.838 2.838 0 000-4.016zm-.734 3.282a1.804 1.804 0 01-2.541 0L26.109 5.256a2.128 2.128 0 00-1.5-.605c-.567 0-1.114.219-1.494.604l-19.01 19.01a1.804 1.804 0 01-2.543 0 1.804 1.804 0 010-2.541l19.01-19.005a5.653 5.653 0 014.037-1.677c1.526 0 2.959.593 4.037 1.677l19.01 19.005a1.804 1.804 0 010 2.542z" fill="#AB0C2F"/></svg>